<mxfile host="app.diagrams.net" modified="2024-04-03T10:54:53.383Z" agent="Mozilla/5.0 (Windows NT 10.0; Win64; x64) AppleWebKit/537.36 (KHTML, like Gecko) Chrome/123.0.0.0 Safari/537.36" etag="lvKoIDQtphnGpXXotUrj" version="24.2.1" type="device">
  <diagram name="Page-1" id="Mx7Iq8ttASBbPjpLBnmU">
    <mxGraphModel dx="1060" dy="915" grid="1" gridSize="10" guides="1" tooltips="1" connect="1" arrows="1" fold="1" page="1" pageScale="1" pageWidth="850" pageHeight="1100" math="0" shadow="0">
      <root>
        <mxCell id="0" />
        <mxCell id="1" parent="0" />
        <mxCell id="pWQf9mh5aRW6wcGT0CdE-1" value="" style="rounded=0;whiteSpace=wrap;html=1;fillColor=#ffffff;shadow=0;" parent="1" vertex="1">
          <mxGeometry x="240" y="130" width="820" height="400" as="geometry" />
        </mxCell>
        <mxCell id="pWQf9mh5aRW6wcGT0CdE-2" value="" style="rounded=0;whiteSpace=wrap;html=1;" parent="1" vertex="1">
          <mxGeometry x="250" y="215" width="430" height="230" as="geometry" />
        </mxCell>
        <mxCell id="pWQf9mh5aRW6wcGT0CdE-3" value="&lt;font style=&quot;font-size: 18px;&quot;&gt;Learning Modules&lt;/font&gt;" style="rounded=0;whiteSpace=wrap;html=1;" parent="1" vertex="1">
          <mxGeometry x="268" y="255" width="158" height="50" as="geometry" />
        </mxCell>
        <mxCell id="pWQf9mh5aRW6wcGT0CdE-4" value="" style="shape=sumEllipse;perimeter=ellipsePerimeter;whiteSpace=wrap;html=1;backgroundOutline=1;" parent="1" vertex="1">
          <mxGeometry x="650" y="230" width="20" height="20" as="geometry" />
        </mxCell>
        <mxCell id="pWQf9mh5aRW6wcGT0CdE-10" value="&lt;font style=&quot;font-size: 15px;&quot;&gt;Add New&lt;/font&gt;" style="rounded=1;whiteSpace=wrap;html=1;" parent="1" vertex="1">
          <mxGeometry x="268" y="365" width="117" height="30" as="geometry" />
        </mxCell>
        <mxCell id="pWQf9mh5aRW6wcGT0CdE-12" value="" style="verticalLabelPosition=bottom;shadow=0;dashed=0;align=center;html=1;verticalAlign=top;strokeWidth=1;shape=mxgraph.mockup.graphics.simpleIcon;strokeColor=#999999;" parent="1" vertex="1">
          <mxGeometry x="540" y="285" width="110" height="110" as="geometry" />
        </mxCell>
        <mxCell id="pWQf9mh5aRW6wcGT0CdE-24" value="&lt;font style=&quot;font-size: 15px;&quot;&gt;Select Course&lt;/font&gt;" style="rounded=0;whiteSpace=wrap;html=1;align=left;" parent="1" vertex="1">
          <mxGeometry x="268" y="325" width="243" height="20" as="geometry" />
        </mxCell>
        <mxCell id="pWQf9mh5aRW6wcGT0CdE-40" value="" style="html=1;verticalLabelPosition=bottom;labelBackgroundColor=#ffffff;verticalAlign=top;shadow=0;dashed=0;strokeWidth=2;shape=mxgraph.ios7.misc.down;strokeColor=#000000;" parent="1" vertex="1">
          <mxGeometry x="490" y="332" width="12" height="6" as="geometry" />
        </mxCell>
        <mxCell id="bHh6-9VSZHxU1Uiq85kI-1" value="&lt;font style=&quot;font-size: 15px;&quot;&gt;Manage Existing&lt;/font&gt;" style="rounded=1;whiteSpace=wrap;html=1;" vertex="1" parent="1">
          <mxGeometry x="405" y="365" width="117" height="30" as="geometry" />
        </mxCell>
        <mxCell id="bHh6-9VSZHxU1Uiq85kI-2" value="" style="rounded=0;whiteSpace=wrap;html=1;" vertex="1" parent="1">
          <mxGeometry x="730" y="215" width="300" height="230" as="geometry" />
        </mxCell>
        <mxCell id="bHh6-9VSZHxU1Uiq85kI-3" value="&lt;font style=&quot;font-size: 18px;&quot;&gt;Manage Modules&lt;/font&gt;" style="rounded=0;whiteSpace=wrap;html=1;" vertex="1" parent="1">
          <mxGeometry x="748" y="250" width="158" height="50" as="geometry" />
        </mxCell>
        <mxCell id="bHh6-9VSZHxU1Uiq85kI-4" value="" style="shape=sumEllipse;perimeter=ellipsePerimeter;whiteSpace=wrap;html=1;backgroundOutline=1;" vertex="1" parent="1">
          <mxGeometry x="1002" y="235" width="20" height="20" as="geometry" />
        </mxCell>
        <mxCell id="bHh6-9VSZHxU1Uiq85kI-5" value="&lt;font style=&quot;font-size: 15px;&quot;&gt;Confirm&lt;/font&gt;" style="rounded=1;whiteSpace=wrap;html=1;" vertex="1" parent="1">
          <mxGeometry x="821.5" y="403" width="117" height="30" as="geometry" />
        </mxCell>
        <mxCell id="bHh6-9VSZHxU1Uiq85kI-6" value="&lt;font style=&quot;font-size: 15px;&quot;&gt;Selected Course&lt;/font&gt;" style="rounded=0;whiteSpace=wrap;html=1;align=left;" vertex="1" parent="1">
          <mxGeometry x="748" y="311" width="243" height="20" as="geometry" />
        </mxCell>
        <mxCell id="bHh6-9VSZHxU1Uiq85kI-10" value="&lt;font style=&quot;font-size: 15px;&quot;&gt;Module Status [Enabled / Disabled]&lt;/font&gt;" style="rounded=0;whiteSpace=wrap;html=1;align=left;" vertex="1" parent="1">
          <mxGeometry x="748" y="366" width="243" height="25" as="geometry" />
        </mxCell>
        <mxCell id="bHh6-9VSZHxU1Uiq85kI-11" value="&lt;font style=&quot;font-size: 15px;&quot;&gt;Module Duration [Semester]&lt;/font&gt;" style="rounded=0;whiteSpace=wrap;html=1;align=left;" vertex="1" parent="1">
          <mxGeometry x="748" y="339" width="243" height="20" as="geometry" />
        </mxCell>
        <mxCell id="bHh6-9VSZHxU1Uiq85kI-16" value="" style="line;strokeWidth=2;html=1;" vertex="1" parent="1">
          <mxGeometry x="465" y="494" width="420" height="10" as="geometry" />
        </mxCell>
        <mxCell id="bHh6-9VSZHxU1Uiq85kI-17" value="" style="edgeStyle=segmentEdgeStyle;endArrow=classic;html=1;curved=0;rounded=0;endSize=8;startSize=8;" edge="1" parent="1">
          <mxGeometry width="50" height="50" relative="1" as="geometry">
            <mxPoint x="833" y="499" as="sourcePoint" />
            <mxPoint x="883" y="449" as="targetPoint" />
          </mxGeometry>
        </mxCell>
        <mxCell id="bHh6-9VSZHxU1Uiq85kI-18" value="" style="line;strokeWidth=2;direction=south;html=1;" vertex="1" parent="1">
          <mxGeometry x="460" y="395" width="10" height="105" as="geometry" />
        </mxCell>
      </root>
    </mxGraphModel>
  </diagram>
</mxfile>
